<svg version="1.1" xmlns="http://www.w3.org/2000/svg" width="24" height="24" viewBox="0 0 24 24">
  <path fill="currentColor" d="M22.286 24h-20.571c-0.946 0-1.714-0.768-1.714-1.714v-18c0-0.946 0.768-1.714 1.714-1.714h1.714v0.857c0 1.42 1.151 2.571 2.571 2.571s2.571-1.151 2.571-2.571v-0.857h6.857v0.857c0 1.42 1.152 2.571 2.571 2.571s2.571-1.151 2.571-2.571v-0.857h1.714c0.946 0 1.714 0.768 1.714 1.714v18c0 0.946-0.768 1.714-1.714 1.714zM22.286 8.571h-20.571v13.714h20.571v-13.714zM9.488 15.282c0.169-0.269 0.254-0.554 0.254-0.851 0-0.663-0.357-0.994-1.070-0.994-0.62 0-1.212 0.246-1.778 0.738v-1.396c0.626-0.405 1.333-0.608 2.12-0.608 0.736 0 1.311 0.185 1.725 0.555s0.621 0.87 0.621 1.499c0 0.84-0.504 1.709-1.512 2.607l-1.482 1.316v0.030h2.923v1.316h-4.741v-1.235l2.064-1.974c0.415-0.398 0.707-0.731 0.876-1.001zM15.289 18.142c0.226-0.174 0.339-0.417 0.339-0.729 0-0.321-0.14-0.569-0.419-0.743s-0.663-0.261-1.153-0.261h-0.648v-1.215h0.597c0.938 0 1.407-0.311 1.407-0.934 0-0.586-0.36-0.879-1.080-0.879-0.482 0-0.951 0.156-1.407 0.467v-1.296c0.506-0.255 1.095-0.381 1.767-0.381 0.736 0 1.31 0.165 1.72 0.497s0.615 0.762 0.615 1.291c0 0.941-0.477 1.53-1.431 1.767v0.025c0.509 0.063 0.91 0.249 1.205 0.555s0.442 0.682 0.442 1.127c0 0.673-0.246 1.205-0.738 1.597s-1.172 0.588-2.039 0.588c-0.743 0-1.347-0.121-1.813-0.362v-1.381c0.482 0.351 1.045 0.527 1.688 0.527 0.405 0.002 0.72-0.086 0.946-0.26zM17.973 5.143c-0.933 0-1.688-0.755-1.688-1.688v-1.767c0-0.933 0.755-1.688 1.688-1.688s1.688 0.755 1.688 1.688v1.767c0 0.933-0.755 1.688-1.688 1.688zM5.973 5.143c-0.933 0-1.688-0.755-1.688-1.688v-1.767c0-0.933 0.755-1.688 1.688-1.688s1.688 0.755 1.688 1.688v1.767c0 0.933-0.756 1.688-1.688 1.688z"></path>
</svg>
