<svg version="1.1" xmlns="http://www.w3.org/2000/svg" width="24" height="24" viewBox="0 0 24 24">
  <path fill="currentColor" d="M12 24c-6.628 0-12-5.372-12-12s5.372-12 12-12 12 5.372 12 12-5.372 12-12 12zM17.502 8.501c0.225-0.225 0.225-0.592 0-0.817l-1.226-1.225c-0.225-0.225-0.592-0.225-0.817 0l-3.472 3.472-3.472-3.472c-0.225-0.225-0.592-0.225-0.817 0l-1.226 1.225c-0.225 0.225-0.225 0.592 0 0.817l3.473 3.473-3.473 3.471c-0.225 0.225-0.225 0.592 0 0.817l1.226 1.226c0.225 0.225 0.592 0.225 0.817 0l3.472-3.473 3.472 3.473c0.225 0.225 0.592 0.225 0.817 0l1.226-1.226c0.225-0.225 0.225-0.592 0-0.817l-3.473-3.471 3.473-3.473z"></path>
</svg>
